<?xml version="1.0" encoding="UTF-8"?>
<svg width="31px" height="31px" viewBox="0 0 31 31" version="1.1" xmlns="http://www.w3.org/2000/svg" xmlns:xlink="http://www.w3.org/1999/xlink">
    <!-- Generator: Sketch 58 (84663) - https://sketch.com -->
    <title>pictograms/documents/document 02</title>
    <desc>Created with Sketch.</desc>
    <g id="20-Requester-Dashboard" stroke="none" stroke-width="1" fill="none" fill-rule="evenodd">
        <g id="pictograms/documents/document-02" transform="translate(-1.000000, -1.000000)" fill="#000000">
            <path d="M5.7012,31 L28.7652,31 C29.9972,31 31.0002,29.998 31.0002,28.767 L31.0002,23.721 L6.7202,23.721 L6.7202,28.689 C6.7202,29.605 6.3222,30.44 5.7012,31 L5.7012,31 Z M1.7202,1.721 L1.7202,28.767 C1.7202,29.41 1.9622,29.998 2.4022,30.421 C2.7922,30.796 3.3072,31 3.8602,31 L3.8822,31 C3.9052,31 3.9272,31 3.9502,30.999 C5.0802,30.954 6.0002,29.918 6.0002,28.689 L6.0002,23.36 C6.0002,23.161 6.1612,23 6.3602,23 L26.0002,23 L26.0002,1.721 L1.7202,1.721 Z M3.8602,31.721 C3.1202,31.721 2.4292,31.445 1.9032,30.939 C1.3292,30.388 1.0002,29.596 1.0002,28.767 L1.0002,1.36 C1.0002,1.161 1.1612,1 1.3602,1 L26.3602,1 C26.5582,1 26.7202,1.161 26.7202,1.36 L26.7202,23 L31.3602,23 C31.5582,23 31.7202,23.161 31.7202,23.36 L31.7202,28.767 C31.7202,30.396 30.3942,31.721 28.7652,31.721 L3.8872,31.721 L3.8602,31.721 Z M21.36,18.7207 L23.36,18.7207 L23.36,17.9997 L21.36,17.9997 L21.36,18.7207 Z M4.331,6.7207 L17.36,6.7207 L17.36,5.9997 L4.331,5.9997 L4.331,6.7207 Z M21.36,6.7207 L23.36,6.7207 L23.36,5.9997 L21.36,5.9997 L21.36,6.7207 Z M4.331,10.7207 L17.36,10.7207 L17.36,9.9997 L4.331,9.9997 L4.331,10.7207 Z M21.36,10.7207 L23.36,10.7207 L23.36,9.9997 L21.36,9.9997 L21.36,10.7207 Z M4.331,14.7367 L17.36,14.7367 L17.36,14.0157 L4.331,14.0157 L4.331,14.7367 Z M21.36,14.7367 L23.36,14.7367 L23.36,14.0157 L21.36,14.0157 L21.36,14.7367 Z M4.331,18.7207 L17.36,18.7207 L17.36,17.9997 L4.331,17.9997 L4.331,18.7207 Z" id="Fill-13"></path>
        </g>
    </g>
</svg>