<?xml version="1.0" encoding="UTF-8"?>
<svg width="31px" height="31px" viewBox="0 0 31 31" version="1.1" xmlns="http://www.w3.org/2000/svg" xmlns:xlink="http://www.w3.org/1999/xlink">
    <title>pictograms/deployment/expand</title>
    <g id="74-IBM-Delivery-Lead-Capacity-Management" stroke="none" stroke-width="1" fill="none" fill-rule="evenodd">
        <g id="MP-/-Header-/-Page-Title-Icon-Group-Copy" transform="translate(-1.000000, -6.000000)" fill="#000000">
            <g id="Fill-9" transform="translate(0.000000, 5.000000)">
                <path d="M21.6141,21.1055 L30.999,30.4901 L30.9997,22.3607 L31.7197,22.3607 L31.7197,31.7207 L22.3597,31.7207 L22.3597,30.9997 L30.49,30.9991 L21.1051,21.6155 L21.6141,21.1055 Z M11.1053,21.1051 L11.6143,21.6151 L2.23,30.9991 L10.36,30.9997 L10.36,31.7207 L1,31.7207 L1,22.3607 L1.72,22.3607 L1.72,30.4901 L11.1053,21.1051 Z M31.7197,1.0001 L31.7197,10.3601 L30.9997,10.3601 L30.999,2.2301 L21.6141,11.6153 L21.1051,11.1053 L30.49,1.7211 L22.3597,1.7211 L22.3597,1.0001 L31.7197,1.0001 Z M10.36,1.0001 L10.36,1.7211 L2.23,1.7211 L11.6143,11.1048 L11.1053,11.6158 L1.72,2.2291 L1.72,10.3601 L1,10.3601 L1,1.0001 L10.36,1.0001 Z"></path>
            </g>
        </g>
    </g>
</svg>